# xmcd
#
# Track frame offsets:
# 150
# 14618
# 32877
# 50697
# 63433
# 75109
# 87656
# 104343
# 122084
# 135450
# 149110
# 161146
# 172739
# 185388
# 199642
# 213078
# 227276
# 241553
# 255770
# 271340
# 285512
# 297869
# 311346
# 325350
#
# Disc length: 4523 seconds
#
#
# Revision: 0
# Processed by: cddbd v1.5.2PL0 Copyright (c) Steve Scherf et al.
# Submitted via: FreeRIP 2.96 
#
DISCID=4711a918
DTITLE=Iny Lorentz - Die Goldhändlerin CD3v6
DYEAR=2006
DGENRE=Speech
TTITLE0=051 Leah wusste nicht
TTITLE1=052 Mit dem Gefühl
TTITLE2=053 Wenn die Geschäfte weiter laufen sollen
TTITLE3=054 Sarah wartete hinter dem Tor
TTITLE4=055 Jetzt zog sie die Tür mit einem heftigen Ruck
TTITLE5=056 Der Herzog von Burgund
TTITLE6=057 Der Pfad dem Lea und Jochanan
TTITLE7=058 Das kann ich dir sagen
TTITLE8=059 Herzog Maximilian
TTITLE9=060 Eine Weile unterhielt Orlando sich mit dem Herzog
TTITLE10=061 Maximilian nickte Leah und Orlando
TTITLE11=062 Womit wir wieder beim flandrischen Weinmonopol wären
TTITLE12=063 Als Herzog Maximilian aufbrach
TTITLE13=064 Zwei Wochen später
TTITLE14=065 Nur ein paar Kreuzer für die Reise
TTITLE15=066 Im Gegensatz zu Lea
TTITLE16=067 Ein Zittern ging durch seinen Körper
TTITLE17=068 Wie kommt ihr darauf
TTITLE18=069 Die ersten Tage ihrer Reise
TTITLE19=070 Während Leas Abwesenheit
TTITLE20=071 Als Sarah von dem Interesse des Markgrafen
TTITLE21=072 Sarah schüttelte den Kopf
TTITLE22=073 Nachdem beide zur Erfüllung gekommen waren
TTITLE23=074 Hartenburg war nicht mehr weit
EXTD=gelesen von Elke Schützhold\n
EXTT0=
EXTT1=
EXTT2=
EXTT3=
EXTT4=
EXTT5=
EXTT6=
EXTT7=
EXTT8=
EXTT9=
EXTT10=
EXTT11=
EXTT12=
EXTT13=
EXTT14=
EXTT15=
EXTT16=
EXTT17=
EXTT18=
EXTT19=
EXTT20=
EXTT21=
EXTT22=
EXTT23=
PLAYORDER=
